<svg width="20" height="21" viewBox="0 0 20 21" fill="none" xmlns="http://www.w3.org/2000/svg">
<g clip-path="url(#clip0_3586_3904)">
<path d="M8.25016 4.17852C8.82377 4.04425 9.41105 3.97713 10.0002 3.97852C15.8335 3.97852 19.1668 10.6452 19.1668 10.6452C18.661 11.5915 18.0577 12.4825 17.3668 13.3035M11.7668 12.4118C11.538 12.6575 11.262 12.8545 10.9553 12.9911C10.6486 13.1278 10.3176 13.2012 9.9819 13.2072C9.64623 13.2131 9.3128 13.1513 9.0015 13.0256C8.69021 12.8999 8.40743 12.7127 8.17003 12.4753C7.93264 12.2379 7.74549 11.9551 7.61975 11.6438C7.49402 11.3325 7.43227 10.9991 7.43819 10.6634C7.44411 10.3278 7.51759 9.99672 7.65423 9.69005C7.79087 9.38339 7.98787 9.10739 8.2335 8.87852M0.833496 1.47852L19.1668 19.8118M14.9502 15.5952C13.5257 16.681 11.7911 17.2826 10.0002 17.3118C4.16683 17.3118 0.833496 10.6452 0.833496 10.6452C1.87007 8.71343 3.30778 7.02569 5.05016 5.69518L14.9502 15.5952Z" stroke="#595959" stroke-width="2" stroke-linecap="round" stroke-linejoin="round"/>
</g>
<defs>
<clipPath id="clip0_3586_3904">
<rect width="20" height="20" fill="white" transform="translate(0 0.645508)"/>
</clipPath>
</defs>
</svg>
