<svg width="20" height="21" viewBox="0 0 20 21" fill="none" xmlns="http://www.w3.org/2000/svg">
<path d="M5.83333 9.8125V6.47917C5.83333 5.3741 6.27232 4.31429 7.05372 3.53289C7.83512 2.75149 8.89493 2.3125 10 2.3125C11.1051 2.3125 12.1649 2.75149 12.9463 3.53289C13.7277 4.31429 14.1667 5.3741 14.1667 6.47917V9.8125M4.16667 9.8125H15.8333C16.7538 9.8125 17.5 10.5587 17.5 11.4792V17.3125C17.5 18.233 16.7538 18.9792 15.8333 18.9792H4.16667C3.24619 18.9792 2.5 18.233 2.5 17.3125V11.4792C2.5 10.5587 3.24619 9.8125 4.16667 9.8125Z" stroke="#595959" stroke-width="2" stroke-linecap="round" stroke-linejoin="round"/>
</svg>
